# Tiled2Unity generated file. Do not modify by hand.
# Wavefront file for 'Level_01_mesh_0005.obj'

# Vertices (Count = 416)
v -0.16 -1.92 0
v -0.32 -1.92 0
v -0.32 -1.76 0
v -0.16 -1.76 0
v -0.32 -1.92 0
v -0.48 -1.92 0
v -0.48 -1.76 0
v -0.32 -1.76 0
v -3.36 -2.08 0
v -3.52 -2.08 0
v -3.52 -1.92 0
v -3.36 -1.92 0
v -3.68 -2.08 0
v -3.84 -2.08 0
v -3.84 -1.92 0
v -3.68 -1.92 0
v -3.84 -2.08 0
v -4 -2.08 0
v -4 -1.92 0
v -3.84 -1.92 0
v -4.16 -2.08 0
v -4.32 -2.08 0
v -4.32 -1.92 0
v -4.16 -1.92 0
v -4.8 -2.08 0
v -4.96 -2.08 0
v -4.96 -1.92 0
v -4.8 -1.92 0
v -5.12 -2.08 0
v -5.28 -2.08 0
v -5.28 -1.92 0
v -5.12 -1.92 0
v -9.12 -2.56 0
v -9.28 -2.56 0
v -9.28 -2.4 0
v -9.12 -2.4 0
v -9.28 -2.56 0
v -9.44 -2.56 0
v -9.44 -2.4 0
v -9.28 -2.4 0
v -9.599999 -2.56 0
v -9.76 -2.56 0
v -9.76 -2.4 0
v -9.599999 -2.4 0
v -0.32 -2.72 0
v -0.48 -2.72 0
v -0.48 -2.56 0
v -0.32 -2.56 0
v -7.68 -2.72 0
v -7.84 -2.72 0
v -7.84 -2.56 0
v -7.68 -2.56 0
v -8 -2.72 0
v -8.16 -2.72 0
v -8.16 -2.56 0
v -8 -2.56 0
v -8.32 -2.72 0
v -8.48 -2.72 0
v -8.48 -2.56 0
v -8.32 -2.56 0
v -0.32 -3.04 0
v -0.48 -3.04 0
v -0.48 -2.88 0
v -0.32 -2.88 0
v -4 -3.04 0
v -4.16 -3.04 0
v -4.16 -2.88 0
v -4 -2.88 0
v -4.8 -3.04 0
v -4.96 -3.04 0
v -4.96 -2.88 0
v -4.8 -2.88 0
v -5.44 -3.04 0
v -5.6 -3.04 0
v -5.6 -2.88 0
v -5.44 -2.88 0
v -6.72 -3.04 0
v -6.88 -3.04 0
v -6.88 -2.88 0
v -6.72 -2.88 0
v -7.52 -3.04 0
v -7.68 -3.04 0
v -7.68 -2.88 0
v -7.52 -2.88 0
v -0.32 -3.68 0
v -0.48 -3.68 0
v -0.48 -3.52 0
v -0.32 -3.52 0
v -15.52 -3.68 0
v -15.68 -3.68 0
v -15.68 -3.52 0
v -15.52 -3.52 0
v -15.68 -3.68 0
v -15.84 -3.68 0
v -15.84 -3.52 0
v -15.68 -3.52 0
v -15.84 -3.68 0
v -16 -3.68 0
v -16 -3.52 0
v -15.84 -3.52 0
v -0.32 -4.32 0
v -0.48 -4.32 0
v -0.48 -4.16 0
v -0.32 -4.16 0
v -5.44 -4.32 0
v -5.6 -4.32 0
v -5.6 -4.16 0
v -5.44 -4.16 0
v -5.92 -4.32 0
v -6.08 -4.32 0
v -6.08 -4.16 0
v -5.92 -4.16 0
v -6.72 -4.32 0
v -6.88 -4.32 0
v -6.88 -4.16 0
v -6.72 -4.16 0
v -7.36 -4.32 0
v -7.52 -4.32 0
v -7.52 -4.16 0
v -7.36 -4.16 0
v -15.68 -4.48 0
v -15.84 -4.48 0
v -15.84 -4.32 0
v -15.68 -4.32 0
v -0.32 -4.8 0
v -0.48 -4.8 0
v -0.48 -4.64 0
v -0.32 -4.64 0
v -15.68 -4.8 0
v -15.84 -4.8 0
v -15.84 -4.64 0
v -15.68 -4.64 0
v -11.36 -5.28 0
v -11.52 -5.28 0
v -11.52 -5.12 0
v -11.36 -5.12 0
v -13.12 -5.28 0
v -13.28 -5.28 0
v -13.28 -5.12 0
v -13.12 -5.12 0
v -13.28 -5.28 0
v -13.44 -5.28 0
v -13.44 -5.12 0
v -13.28 -5.12 0
v -13.44 -5.28 0
v -13.6 -5.28 0
v -13.6 -5.12 0
v -13.44 -5.12 0
v -13.92 -5.28 0
v -14.08 -5.28 0
v -14.08 -5.12 0
v -13.92 -5.12 0
v -14.56 -5.28 0
v -14.72 -5.28 0
v -14.72 -5.12 0
v -14.56 -5.12 0
v -8 -5.44 0
v -8.16 -5.44 0
v -8.16 -5.28 0
v -8 -5.28 0
v -8.48 -5.44 0
v -8.639999 -5.44 0
v -8.639999 -5.28 0
v -8.48 -5.28 0
v -13.28 -5.44 0
v -13.44 -5.44 0
v -13.44 -5.28 0
v -13.28 -5.28 0
v -13.44 -5.44 0
v -13.6 -5.44 0
v -13.6 -5.28 0
v -13.44 -5.28 0
v -4.8 -5.6 0
v -4.96 -5.6 0
v -4.96 -5.44 0
v -4.8 -5.44 0
v -5.6 -5.6 0
v -5.76 -5.6 0
v -5.76 -5.44 0
v -5.6 -5.44 0
v -12.8 -5.6 0
v -12.96 -5.6 0
v -12.96 -5.44 0
v -12.8 -5.44 0
v -1.6 -5.76 0
v -1.76 -5.76 0
v -1.76 -5.6 0
v -1.6 -5.6 0
v -1.92 -5.76 0
v -2.08 -5.76 0
v -2.08 -5.6 0
v -1.92 -5.6 0
v -2.08 -5.76 0
v -2.24 -5.76 0
v -2.24 -5.6 0
v -2.08 -5.6 0
v -11.68 -5.76 0
v -11.84 -5.76 0
v -11.84 -5.6 0
v -11.68 -5.6 0
v -14.72 -6.08 0
v -14.88 -6.08 0
v -14.88 -5.92 0
v -14.72 -5.92 0
v -3.84 -6.24 0
v -4 -6.24 0
v -4 -6.08 0
v -3.84 -6.08 0
v -4.64 -6.24 0
v -4.8 -6.24 0
v -4.8 -6.08 0
v -4.64 -6.08 0
v -5.6 -6.24 0
v -5.76 -6.24 0
v -5.76 -6.08 0
v -5.6 -6.08 0
v -6.08 -6.24 0
v -6.24 -6.24 0
v -6.24 -6.08 0
v -6.08 -6.08 0
v -6.72 -6.24 0
v -6.88 -6.24 0
v -6.88 -6.08 0
v -6.72 -6.08 0
v -7.68 -6.24 0
v -7.84 -6.24 0
v -7.84 -6.08 0
v -7.68 -6.08 0
v -12.96 -6.24 0
v -13.12 -6.24 0
v -13.12 -6.08 0
v -12.96 -6.08 0
v -14.72 -6.24 0
v -14.88 -6.24 0
v -14.88 -6.08 0
v -14.72 -6.08 0
v -12.96 -6.4 0
v -13.12 -6.4 0
v -13.12 -6.24 0
v -12.96 -6.24 0
v -14.72 -6.4 0
v -14.88 -6.4 0
v -14.88 -6.24 0
v -14.72 -6.24 0
v -12.96 -6.56 0
v -13.12 -6.56 0
v -13.12 -6.4 0
v -12.96 -6.4 0
v -11.68 -6.72 0
v -11.84 -6.72 0
v -11.84 -6.56 0
v -11.68 -6.56 0
v -5.76 -7.04 0
v -5.92 -7.04 0
v -5.92 -6.88 0
v -5.76 -6.88 0
v -8.639999 -7.04 0
v -8.8 -7.04 0
v -8.8 -6.88 0
v -8.639999 -6.88 0
v -9.12 -7.04 0
v -9.28 -7.04 0
v -9.28 -6.88 0
v -9.12 -6.88 0
v -10.08 -7.04 0
v -10.24 -7.04 0
v -10.24 -6.88 0
v -10.08 -6.88 0
v -10.56 -7.04 0
v -10.72 -7.04 0
v -10.72 -6.88 0
v -10.56 -6.88 0
v -14.56 -7.04 0
v -14.72 -7.04 0
v -14.72 -6.88 0
v -14.56 -6.88 0
v -5.76 -7.2 0
v -5.92 -7.2 0
v -5.92 -7.04 0
v -5.76 -7.04 0
v -8.639999 -7.2 0
v -8.8 -7.2 0
v -8.8 -7.04 0
v -8.639999 -7.04 0
v -9.12 -7.2 0
v -9.28 -7.2 0
v -9.28 -7.04 0
v -9.12 -7.04 0
v -10.08 -7.2 0
v -10.24 -7.2 0
v -10.24 -7.04 0
v -10.08 -7.04 0
v -10.56 -7.2 0
v -10.72 -7.2 0
v -10.72 -7.04 0
v -10.56 -7.04 0
v -14.56 -7.2 0
v -14.72 -7.2 0
v -14.72 -7.04 0
v -14.56 -7.04 0
v -9.12 -7.36 0
v -9.28 -7.36 0
v -9.28 -7.2 0
v -9.12 -7.2 0
v -10.08 -7.36 0
v -10.24 -7.36 0
v -10.24 -7.2 0
v -10.08 -7.2 0
v -14.56 -7.36 0
v -14.72 -7.36 0
v -14.72 -7.2 0
v -14.56 -7.2 0
v -15.68 -7.52 0
v -15.84 -7.52 0
v -15.84 -7.36 0
v -15.68 -7.36 0
v -15.84 -7.52 0
v -16 -7.52 0
v -16 -7.36 0
v -15.84 -7.36 0
v -10.72 -7.84 0
v -10.88 -7.84 0
v -10.88 -7.68 0
v -10.72 -7.68 0
v -11.68 -7.84 0
v -11.84 -7.84 0
v -11.84 -7.68 0
v -11.68 -7.68 0
v -12.16 -7.84 0
v -12.32 -7.84 0
v -12.32 -7.68 0
v -12.16 -7.68 0
v -12.32 -7.84 0
v -12.48 -7.84 0
v -12.48 -7.68 0
v -12.32 -7.68 0
v -12.64 -7.84 0
v -12.8 -7.84 0
v -12.8 -7.68 0
v -12.64 -7.68 0
v -13.28 -7.84 0
v -13.44 -7.84 0
v -13.44 -7.68 0
v -13.28 -7.68 0
v -10.72 -8 0
v -10.88 -8 0
v -10.88 -7.84 0
v -10.72 -7.84 0
v -13.28 -8 0
v -13.44 -8 0
v -13.44 -7.84 0
v -13.28 -7.84 0
v -11.52 -9.76 0
v -11.68 -9.76 0
v -11.68 -9.599999 0
v -11.52 -9.599999 0
v -11.68 -9.76 0
v -11.84 -9.76 0
v -11.84 -9.599999 0
v -11.68 -9.599999 0
v -6.88 -10.24 0
v -7.04 -10.24 0
v -7.04 -10.08 0
v -6.88 -10.08 0
v -7.04 -10.24 0
v -7.2 -10.24 0
v -7.2 -10.08 0
v -7.04 -10.08 0
v -12.16 -10.24 0
v -12.32 -10.24 0
v -12.32 -10.08 0
v -12.16 -10.08 0
v -12.16 -10.4 0
v -12.32 -10.4 0
v -12.32 -10.24 0
v -12.16 -10.24 0
v -12.64 -10.4 0
v -12.8 -10.4 0
v -12.8 -10.24 0
v -12.64 -10.24 0
v -12.64 -10.56 0
v -12.8 -10.56 0
v -12.8 -10.4 0
v -12.64 -10.4 0
v -14.24 -10.88 0
v -14.4 -10.88 0
v -14.4 -10.72 0
v -14.24 -10.72 0
v -6.72 -11.04 0
v -6.88 -11.04 0
v -6.88 -10.88 0
v -6.72 -10.88 0
v -6.88 -11.04 0
v -7.04 -11.04 0
v -7.04 -10.88 0
v -6.88 -10.88 0
v -7.04 -11.04 0
v -7.2 -11.04 0
v -7.2 -10.88 0
v -7.04 -10.88 0
v -14.24 -11.04 0
v -14.4 -11.04 0
v -14.4 -10.88 0
v -14.24 -10.88 0
v -14.24 -11.2 0
v -14.4 -11.2 0
v -14.4 -11.04 0
v -14.24 -11.04 0
v -1.92 -11.68 0
v -2.08 -11.68 0
v -2.08 -11.52 0
v -1.92 -11.52 0
v -1.92 -11.84 0
v -2.08 -11.84 0
v -2.08 -11.68 0
v -1.92 -11.68 0

# Texture cooridinates (Count = 36)
vt 0.04 0.6521739
vt 0.08 0.6521739
vt 0.08 0.6956522
vt 0.04 0.6956522
vt 0.12 0.6521739
vt 0.16 0.6521739
vt 0.16 0.6956522
vt 0.12 0.6956522
vt 0.36 0.6521739
vt 0.4 0.6521739
vt 0.4 0.6956522
vt 0.36 0.6956522
vt 0.44 0.6521739
vt 0.48 0.6521739
vt 0.48 0.6956522
vt 0.44 0.6956522
vt 0.4 0.3478261
vt 0.36 0.3478261
vt 0.36 0.3043478
vt 0.4 0.3043478
vt 0.4 0.3913043
vt 0.36 0.3913043
vt 0.4 0.4347826
vt 0.36 0.4347826
vt 0.28 0.3913043
vt 0.32 0.3913043
vt 0.32 0.4347826
vt 0.28 0.4347826
vt 0.44 0.3913043
vt 0.48 0.3913043
vt 0.48 0.4347826
vt 0.44 0.4347826
vt 0.28 0.3478261
vt 0.32 0.3478261
vt 0.44 0.3478261
vt 0.48 0.3478261

# Normal
vn 0 0 -1

# Mesh description
g Level_01_mesh_0005

# Faces
f 1/1/1 2/2/1 3/3/1 4/4/1
f 5/1/1 6/2/1 7/3/1 8/4/1
f 9/1/1 10/2/1 11/3/1 12/4/1
f 13/1/1 14/2/1 15/3/1 16/4/1
f 17/1/1 18/2/1 19/3/1 20/4/1
f 21/1/1 22/2/1 23/3/1 24/4/1
f 25/5/1 26/6/1 27/7/1 28/8/1
f 29/1/1 30/2/1 31/3/1 32/4/1
f 33/1/1 34/2/1 35/3/1 36/4/1
f 37/5/1 38/6/1 39/7/1 40/8/1
f 41/1/1 42/2/1 43/3/1 44/4/1
f 45/9/1 46/10/1 47/11/1 48/12/1
f 49/1/1 50/2/1 51/3/1 52/4/1
f 53/5/1 54/6/1 55/7/1 56/8/1
f 57/1/1 58/2/1 59/3/1 60/4/1
f 61/1/1 62/2/1 63/3/1 64/4/1
f 65/1/1 66/2/1 67/3/1 68/4/1
f 69/5/1 70/6/1 71/7/1 72/8/1
f 73/1/1 74/2/1 75/3/1 76/4/1
f 77/1/1 78/2/1 79/3/1 80/4/1
f 81/5/1 82/6/1 83/7/1 84/8/1
f 85/9/1 86/10/1 87/11/1 88/12/1
f 89/5/1 90/6/1 91/7/1 92/8/1
f 93/1/1 94/2/1 95/3/1 96/4/1
f 97/1/1 98/2/1 99/3/1 100/4/1
f 101/9/1 102/10/1 103/11/1 104/12/1
f 105/5/1 106/6/1 107/7/1 108/8/1
f 109/1/1 110/2/1 111/3/1 112/4/1
f 113/1/1 114/2/1 115/3/1 116/4/1
f 117/5/1 118/6/1 119/7/1 120/8/1
f 121/13/1 122/14/1 123/15/1 124/16/1
f 125/5/1 126/6/1 127/7/1 128/8/1
f 129/13/1 130/14/1 131/15/1 132/16/1
f 133/1/1 134/2/1 135/3/1 136/4/1
f 137/5/1 138/6/1 139/7/1 140/8/1
f 141/5/1 142/6/1 143/7/1 144/8/1
f 145/5/1 146/6/1 147/7/1 148/8/1
f 149/1/1 150/2/1 151/3/1 152/4/1
f 153/5/1 154/6/1 155/7/1 156/8/1
f 157/5/1 158/6/1 159/7/1 160/8/1
f 161/1/1 162/2/1 163/3/1 164/4/1
f 165/1/1 166/2/1 167/3/1 168/4/1
f 169/1/1 170/2/1 171/3/1 172/4/1
f 173/1/1 174/2/1 175/3/1 176/4/1
f 177/1/1 178/2/1 179/3/1 180/4/1
f 181/13/1 182/14/1 183/15/1 184/16/1
f 185/1/1 186/2/1 187/3/1 188/4/1
f 189/5/1 190/6/1 191/7/1 192/8/1
f 193/1/1 194/2/1 195/3/1 196/4/1
f 197/9/1 198/10/1 199/11/1 200/12/1
f 201/17/1 202/18/1 203/19/1 204/20/1
f 205/1/1 206/2/1 207/3/1 208/4/1
f 209/1/1 210/2/1 211/3/1 212/4/1
f 213/5/1 214/6/1 215/7/1 216/8/1
f 217/1/1 218/2/1 219/3/1 220/4/1
f 221/1/1 222/2/1 223/3/1 224/4/1
f 225/1/1 226/2/1 227/3/1 228/4/1
f 229/13/1 230/14/1 231/15/1 232/16/1
f 233/21/1 234/22/1 235/18/1 236/17/1
f 237/13/1 238/14/1 239/15/1 240/16/1
f 241/23/1 242/24/1 243/22/1 244/21/1
f 245/13/1 246/14/1 247/15/1 248/16/1
f 249/9/1 250/10/1 251/11/1 252/12/1
f 253/25/1 254/26/1 255/27/1 256/28/1
f 257/29/1 258/30/1 259/31/1 260/32/1
f 261/22/1 262/21/1 263/23/1 264/24/1
f 265/22/1 266/21/1 267/23/1 268/24/1
f 269/29/1 270/30/1 271/31/1 272/32/1
f 273/22/1 274/21/1 275/23/1 276/24/1
f 277/33/1 278/34/1 279/26/1 280/25/1
f 281/35/1 282/36/1 283/30/1 284/29/1
f 285/18/1 286/17/1 287/21/1 288/22/1
f 289/18/1 290/17/1 291/21/1 292/22/1
f 293/35/1 294/36/1 295/30/1 296/29/1
f 297/18/1 298/17/1 299/21/1 300/22/1
f 301/19/1 302/20/1 303/17/1 304/18/1
f 305/19/1 306/20/1 307/17/1 308/18/1
f 309/19/1 310/20/1 311/17/1 312/18/1
f 313/34/1 314/26/1 315/25/1 316/33/1
f 317/26/1 318/27/1 319/28/1 320/25/1
f 321/26/1 322/25/1 323/33/1 324/34/1
f 325/1/1 326/2/1 327/3/1 328/4/1
f 329/1/1 330/2/1 331/3/1 332/4/1
f 333/5/1 334/6/1 335/7/1 336/8/1
f 337/5/1 338/6/1 339/7/1 340/8/1
f 341/26/1 342/25/1 343/33/1 344/34/1
f 345/27/1 346/28/1 347/25/1 348/26/1
f 349/27/1 350/28/1 351/25/1 352/26/1
f 353/34/1 354/26/1 355/25/1 356/33/1
f 357/26/1 358/27/1 359/28/1 360/25/1
f 361/28/1 362/25/1 363/26/1 364/27/1
f 365/25/1 366/33/1 367/34/1 368/26/1
f 369/29/1 370/30/1 371/31/1 372/32/1
f 373/35/1 374/36/1 375/30/1 376/29/1
f 377/29/1 378/30/1 379/31/1 380/32/1
f 381/35/1 382/36/1 383/30/1 384/29/1
f 385/22/1 386/21/1 387/23/1 388/24/1
f 389/24/1 390/22/1 391/21/1 392/23/1
f 393/22/1 394/18/1 395/17/1 396/21/1
f 397/18/1 398/19/1 399/20/1 400/17/1
f 401/18/1 402/17/1 403/21/1 404/22/1
f 405/19/1 406/20/1 407/17/1 408/18/1
f 409/30/1 410/29/1 411/35/1 412/36/1
f 413/31/1 414/32/1 415/29/1 416/30/1

